**********************
PowerShell transcript start
Start time: 20230514172516
**********************
Transcript started, output file is ./logs/h264nvenc_tune_2_200103.avi.log
DEBUG Invoke-Process
File: ffmpeg
Arg: -y -nostats -hwaccel nvdec -hwaccel_output_format cuda -i 200103.avi -an -c:v h264_nvenc -preset:v p4 -tune hq -profile:v high -rc:v vbr -rc-lookahead 0 -spatial-aq 0 -temporal-aq 1 -aq-strength 8 -cq 23 -multipass 1 -g 60 -bf 2 -pix_fmt yuv420p -color_range tv -color_primaries bt709 -color_trc bt709 -colorspace bt709 -movflags +faststart output.mp4
ArgList:

ffmpeg version N-109952-g52a0852ae6-20230302 Copyright (c) 2000-2023 the FFmpeg developers
  built with gcc 12.2.0 (crosstool-NG 1.25.0.90_cf9beb1)
  configuration: --prefix=/ffbuild/prefix --pkg-config-flags=--static --pkg-config=pkg-config --cross-prefix=x86_64-w64-mingw32- --arch=x86_64 --target-os=mingw32 --enable-nonfree --enable-gpl --enable-version3 --disable-debug --disable-w32threads --enable-pthreads --enable-iconv --enable-libxml2 --enable-zlib --enable-libfreetype --enable-libfribidi --enable-gmp --enable-lzma --enable-fontconfig --enable-libvorbis --enable-opencl --disable-libpulse --enable-libvmaf --disable-libxcb --disable-xlib --enable-amf --enable-libaom --enable-libaribb24 --enable-avisynth --enable-chromaprint --enable-libdav1d --enable-libdavs2 --enable-libfdk-aac --enable-ffnvcodec --enable-cuda-llvm --enable-frei0r --enable-libgme --enable-libkvazaar --enable-libass --enable-libbluray --enable-libjxl --enable-libmp3lame --enable-libopus --enable-librist --enable-libssh --enable-libtheora --enable-libvpx --enable-libwebp --enable-lv2 --disable-libmfx --enable-libvpl --enable-openal --enable-libopencore-amrnb --enable-libopencore-amrwb --enable-libopenh264 --enable-libopenjpeg --enable-libopenmpt --enable-librav1e --enable-librubberband --enable-schannel --enable-sdl2 --enable-libsoxr --enable-libsrt --enable-libsvtav1 --enable-libtwolame --enable-libuavs3d --disable-libdrm --disable-vaapi --enable-libvidstab --enable-vulkan --enable-libshaderc --enable-libplacebo --enable-libx264 --enable-libx265 --enable-libxavs2 --enable-libxvid --enable-libzimg --enable-libzvbi --extra-cflags=-DLIBTWOLAME_STATIC --extra-cxxflags= --extra-ldflags=-pthread --extra-ldexeflags= --extra-libs=-lgomp --extra-version=20230302
  libavutil      58.  3.100 / 58.  3.100
  libavcodec     60.  5.100 / 60.  5.100
  libavformat    60.  4.100 / 60.  4.100
  libavdevice    60.  2.100 / 60.  2.100
  libavfilter     9.  4.100 /  9.  4.100
  libswscale      7.  2.100 /  7.  2.100
  libswresample   4. 11.100 /  4. 11.100
  libpostproc    57.  2.100 / 57.  2.100
Input #0, avi, from '200103.avi':
  Metadata:
    software        : Lavf58.51.101
  Duration: 00:01:47.01, start: 0.000000, bitrate: 745289 kb/s
  Stream #0:0: Video: rawvideo (I420 / 0x30323449), yuv420p, 1920x1080, 745517 kb/s, SAR 1:1 DAR 16:9, 29.97 fps, 29.97 tbr, 29.97 tbn
Stream mapping:
  Stream #0:0 -> #0:0 (rawvideo (native) -> h264 (h264_nvenc))
Press [q] to stop, [?] for help
Output #0, mp4, to 'output.mp4':
  Metadata:
    software        : Lavf58.51.101
    encoder         : Lavf60.4.100
  Stream #0:0: Video: h264 (High) (avc1 / 0x31637661), yuv420p(tv, bt709, progressive), 1920x1080 [SAR 1:1 DAR 16:9], q=2-31, 29.97 fps, 30k tbn
    Metadata:
      encoder         : Lavc60.5.100 h264_nvenc
    Side data:
      cpb: bitrate max/min/avg: 0/0/0 buffer size: 0 vbv_delay: N/A
[mp4 @ 000001a8198f4600] Starting second pass: moving the moov atom to the beginning of the file
frame= 3207 fps= 82 q=18.0 Lsize=   78220kB time=00:01:46.90 bitrate=5993.8kbits/s dup=2 drop=0 speed=2.74x    
video:78181kB audio:0kB subtitle:0kB other streams:0kB global headers:0kB muxing overhead: 0.050906%
DEBUG ExitCode: 0
DEBUG Invoke-Process
File: ffmpeg
Arg: -y -nostats -i output.mp4 -i 200103.avi -filter_complex libvmaf=model=version=vmaf_v0.6.1neg\\:name=vmaf_neg -an -f null -
ArgList:

ffmpeg version N-109952-g52a0852ae6-20230302 Copyright (c) 2000-2023 the FFmpeg developers
  built with gcc 12.2.0 (crosstool-NG 1.25.0.90_cf9beb1)
  configuration: --prefix=/ffbuild/prefix --pkg-config-flags=--static --pkg-config=pkg-config --cross-prefix=x86_64-w64-mingw32- --arch=x86_64 --target-os=mingw32 --enable-nonfree --enable-gpl --enable-version3 --disable-debug --disable-w32threads --enable-pthreads --enable-iconv --enable-libxml2 --enable-zlib --enable-libfreetype --enable-libfribidi --enable-gmp --enable-lzma --enable-fontconfig --enable-libvorbis --enable-opencl --disable-libpulse --enable-libvmaf --disable-libxcb --disable-xlib --enable-amf --enable-libaom --enable-libaribb24 --enable-avisynth --enable-chromaprint --enable-libdav1d --enable-libdavs2 --enable-libfdk-aac --enable-ffnvcodec --enable-cuda-llvm --enable-frei0r --enable-libgme --enable-libkvazaar --enable-libass --enable-libbluray --enable-libjxl --enable-libmp3lame --enable-libopus --enable-librist --enable-libssh --enable-libtheora --enable-libvpx --enable-libwebp --enable-lv2 --disable-libmfx --enable-libvpl --enable-openal --enable-libopencore-amrnb --enable-libopencore-amrwb --enable-libopenh264 --enable-libopenjpeg --enable-libopenmpt --enable-librav1e --enable-librubberband --enable-schannel --enable-sdl2 --enable-libsoxr --enable-libsrt --enable-libsvtav1 --enable-libtwolame --enable-libuavs3d --disable-libdrm --disable-vaapi --enable-libvidstab --enable-vulkan --enable-libshaderc --enable-libplacebo --enable-libx264 --enable-libx265 --enable-libxavs2 --enable-libxvid --enable-libzimg --enable-libzvbi --extra-cflags=-DLIBTWOLAME_STATIC --extra-cxxflags= --extra-ldflags=-pthread --extra-ldexeflags= --extra-libs=-lgomp --extra-version=20230302
  libavutil      58.  3.100 / 58.  3.100
  libavcodec     60.  5.100 / 60.  5.100
  libavformat    60.  4.100 / 60.  4.100
  libavdevice    60.  2.100 / 60.  2.100
  libavfilter     9.  4.100 /  9.  4.100
  libswscale      7.  2.100 /  7.  2.100
  libswresample   4. 11.100 /  4. 11.100
  libpostproc    57.  2.100 / 57.  2.100
Input #0, mov,mp4,m4a,3gp,3g2,mj2, from 'output.mp4':
  Metadata:
    major_brand     : isom
    compatible_brands: isomiso2avc1mp41
    encoder         : Lavf60.4.100
  Duration: 00:01:47.01, start: 0.000000, bitrate: 5988 kb/s
  Stream #0:0[0x1](und): Video: h264 (High) (avc1 / 0x31637661), yuv420p(tv, bt709, progressive), 1920x1080 [SAR 1:1 DAR 16:9], 5985 kb/s, 29.97 fps, 29.97 tbr, 30k tbn (default)
    Metadata:
      handler_name    : VideoHandler
      vendor_id       : [0][0][0][0]
      encoder         : Lavc60.5.100 h264_nvenc
    minor_version   : 512
  Metadata:
    software        : Lavf58.51.101
  Duration: 00:01:47.01, start: 0.000000, bitrate: 745289 kb/s
  Stream #1:0: Video: rawvideo (I420 / 0x30323449), yuv420p, 1920x1080, 745517 kb/s, SAR 1:1 DAR 16:9, 29.97 fps, 29.97 tbr, 29.97 tbn
Input #1, avi, from '200103.avi':
Stream mapping:
  Stream #0:0 (h264) -> libvmaf
  libvmaf:default -> Stream #0:0 (wrapped_avframe)
Press [q] to stop, [?] for help
  Stream #1:0 (rawvideo) -> libvmaf
Output #0, null, to 'pipe:':
  Metadata:
    major_brand     : isom
    minor_version   : 512
    compatible_brands: isomiso2avc1mp41
    encoder         : Lavf60.4.100
  Stream #0:0: Video: wrapped_avframe, yuv420p(tv, bt709, progressive), 1920x1080 [SAR 1:1 DAR 16:9], q=2-31, 200 kb/s, 29.97 fps, 29.97 tbn
    Metadata:
      encoder         : Lavc60.5.100 wrapped_avframe
frame= 3207 fps= 12 q=-0.0 Lsize=N/A time=00:01:46.97 bitrate=N/A speed=0.385x    
video:1503kB audio:0kB subtitle:0kB other streams:0kB global headers:0kB muxing overhead: unknown
[Parsed_libvmaf_0 @ 000001e6e102ef00] VMAF score: 95.780111
DEBUG ExitCode: 0
76.39MB
DEBUG Invoke-Process
File: ffmpeg
Arg: -y -nostats -hwaccel nvdec -hwaccel_output_format cuda -i 200103.avi -an -c:v h264_nvenc -preset:v p7 -tune hq -profile:v high -rc:v vbr -rc-lookahead 0 -spatial-aq 0 -temporal-aq 1 -aq-strength 8 -cq 23 -multipass 1 -g 60 -bf 2 -pix_fmt yuv420p -color_range tv -color_primaries bt709 -color_trc bt709 -colorspace bt709 -movflags +faststart output.mp4
ArgList:

ffmpeg version N-109952-g52a0852ae6-20230302 Copyright (c) 2000-2023 the FFmpeg developers
  built with gcc 12.2.0 (crosstool-NG 1.25.0.90_cf9beb1)
  configuration: --prefix=/ffbuild/prefix --pkg-config-flags=--static --pkg-config=pkg-config --cross-prefix=x86_64-w64-mingw32- --arch=x86_64 --target-os=mingw32 --enable-nonfree --enable-gpl --enable-version3 --disable-debug --disable-w32threads --enable-pthreads --enable-iconv --enable-libxml2 --enable-zlib --enable-libfreetype --enable-libfribidi --enable-gmp --enable-lzma --enable-fontconfig --enable-libvorbis --enable-opencl --disable-libpulse --enable-libvmaf --disable-libxcb --disable-xlib --enable-amf --enable-libaom --enable-libaribb24 --enable-avisynth --enable-chromaprint --enable-libdav1d --enable-libdavs2 --enable-libfdk-aac --enable-ffnvcodec --enable-cuda-llvm --enable-frei0r --enable-libgme --enable-libkvazaar --enable-libass --enable-libbluray --enable-libjxl --enable-libmp3lame --enable-libopus --enable-librist --enable-libssh --enable-libtheora --enable-libvpx --enable-libwebp --enable-lv2 --disable-libmfx --enable-libvpl --enable-openal --enable-libopencore-amrnb --enable-libopencore-amrwb --enable-libopenh264 --enable-libopenjpeg --enable-libopenmpt --enable-librav1e --enable-librubberband --enable-schannel --enable-sdl2 --enable-libsoxr --enable-libsrt --enable-libsvtav1 --enable-libtwolame --enable-libuavs3d --disable-libdrm --disable-vaapi --enable-libvidstab --enable-vulkan --enable-libshaderc --enable-libplacebo --enable-libx264 --enable-libx265 --enable-libxavs2 --enable-libxvid --enable-libzimg --enable-libzvbi --extra-cflags=-DLIBTWOLAME_STATIC --extra-cxxflags= --extra-ldflags=-pthread --extra-ldexeflags= --extra-libs=-lgomp --extra-version=20230302
  libavutil      58.  3.100 / 58.  3.100
  libavcodec     60.  5.100 / 60.  5.100
  libavformat    60.  4.100 / 60.  4.100
  libavdevice    60.  2.100 / 60.  2.100
  libavfilter     9.  4.100 /  9.  4.100
  libswscale      7.  2.100 /  7.  2.100
  libswresample   4. 11.100 /  4. 11.100
  libpostproc    57.  2.100 / 57.  2.100
Input #0, avi, from '200103.avi':
  Metadata:
    software        : Lavf58.51.101
  Duration: 00:01:47.01, start: 0.000000, bitrate: 745289 kb/s
  Stream #0:0: Video: rawvideo (I420 / 0x30323449), yuv420p, 1920x1080, 745517 kb/s, SAR 1:1 DAR 16:9, 29.97 fps, 29.97 tbr, 29.97 tbn
Stream mapping:
  Stream #0:0 -> #0:0 (rawvideo (native) -> h264 (h264_nvenc))
Press [q] to stop, [?] for help
Output #0, mp4, to 'output.mp4':
  Metadata:
    software        : Lavf58.51.101
    encoder         : Lavf60.4.100
  Stream #0:0: Video: h264 (High) (avc1 / 0x31637661), yuv420p(tv, bt709, progressive), 1920x1080 [SAR 1:1 DAR 16:9], q=2-31, 29.97 fps, 30k tbn
    Metadata:
      encoder         : Lavc60.5.100 h264_nvenc
    Side data:
      cpb: bitrate max/min/avg: 0/0/0 buffer size: 0 vbv_delay: N/A
[mp4 @ 0000025d0d4d4600] Starting second pass: moving the moov atom to the beginning of the file
frame= 3207 fps=181 q=16.0 Lsize=   79120kB time=00:01:46.90 bitrate=6062.8kbits/s dup=2 drop=0 speed=6.04x    
video:79080kB audio:0kB subtitle:0kB other streams:0kB global headers:0kB muxing overhead: 0.050139%
DEBUG ExitCode: 0
DEBUG Invoke-Process
File: ffmpeg
Arg: -y -nostats -i output.mp4 -i 200103.avi -filter_complex libvmaf=model=version=vmaf_v0.6.1neg\\:name=vmaf_neg -an -f null -
ArgList:

ffmpeg version N-109952-g52a0852ae6-20230302 Copyright (c) 2000-2023 the FFmpeg developers
  built with gcc 12.2.0 (crosstool-NG 1.25.0.90_cf9beb1)
  configuration: --prefix=/ffbuild/prefix --pkg-config-flags=--static --pkg-config=pkg-config --cross-prefix=x86_64-w64-mingw32- --arch=x86_64 --target-os=mingw32 --enable-nonfree --enable-gpl --enable-version3 --disable-debug --disable-w32threads --enable-pthreads --enable-iconv --enable-libxml2 --enable-zlib --enable-libfreetype --enable-libfribidi --enable-gmp --enable-lzma --enable-fontconfig --enable-libvorbis --enable-opencl --disable-libpulse --enable-libvmaf --disable-libxcb --disable-xlib --enable-amf --enable-libaom --enable-libaribb24 --enable-avisynth --enable-chromaprint --enable-libdav1d --enable-libdavs2 --enable-libfdk-aac --enable-ffnvcodec --enable-cuda-llvm --enable-frei0r --enable-libgme --enable-libkvazaar --enable-libass --enable-libbluray --enable-libjxl --enable-libmp3lame --enable-libopus --enable-librist --enable-libssh --enable-libtheora --enable-libvpx --enable-libwebp --enable-lv2 --disable-libmfx --enable-libvpl --enable-openal --enable-libopencore-amrnb --enable-libopencore-amrwb --enable-libopenh264 --enable-libopenjpeg --enable-libopenmpt --enable-librav1e --enable-librubberband --enable-schannel --enable-sdl2 --enable-libsoxr --enable-libsrt --enable-libsvtav1 --enable-libtwolame --enable-libuavs3d --disable-libdrm --disable-vaapi --enable-libvidstab --enable-vulkan --enable-libshaderc --enable-libplacebo --enable-libx264 --enable-libx265 --enable-libxavs2 --enable-libxvid --enable-libzimg --enable-libzvbi --extra-cflags=-DLIBTWOLAME_STATIC --extra-cxxflags= --extra-ldflags=-pthread --extra-ldexeflags= --extra-libs=-lgomp --extra-version=20230302
  libavutil      58.  3.100 / 58.  3.100
  libavcodec     60.  5.100 / 60.  5.100
  libavformat    60.  4.100 / 60.  4.100
  libavdevice    60.  2.100 / 60.  2.100
  libavfilter     9.  4.100 /  9.  4.100
  libswscale      7.  2.100 /  7.  2.100
  libswresample   4. 11.100 /  4. 11.100
  libpostproc    57.  2.100 / 57.  2.100
Input #0, mov,mp4,m4a,3gp,3g2,mj2, from 'output.mp4':
  Metadata:
    major_brand     : isom
    minor_version   : 512
    compatible_brands: isomiso2avc1mp41
    encoder         : Lavf60.4.100
  Duration: 00:01:47.01, start: 0.000000, bitrate: 6057 kb/s
  Stream #0:0[0x1](und): Video: h264 (High) (avc1 / 0x31637661), yuv420p(tv, bt709, progressive), 1920x1080 [SAR 1:1 DAR 16:9], 6054 kb/s, 29.97 fps, 29.97 tbr, 30k tbn (default)
    Metadata:
      handler_name    : VideoHandler
      vendor_id       : [0][0][0][0]
      encoder         : Lavc60.5.100 h264_nvenc
Input #1, avi, from '200103.avi':
  Metadata:
    software        : Lavf58.51.101
  Duration: 00:01:47.01, start: 0.000000, bitrate: 745289 kb/s
  Stream #1:0: Video: rawvideo (I420 / 0x30323449), yuv420p, 1920x1080, 745517 kb/s, SAR 1:1 DAR 16:9, 29.97 fps, 29.97 tbr, 29.97 tbn
Stream mapping:
  Stream #0:0 (h264) -> libvmaf
  Stream #1:0 (rawvideo) -> libvmaf
  libvmaf:default -> Stream #0:0 (wrapped_avframe)
Press [q] to stop, [?] for help
Output #0, null, to 'pipe:':
  Metadata:
    major_brand     : isom
    minor_version   : 512
    encoder         : Lavf60.4.100
    compatible_brands: isomiso2avc1mp41
  Stream #0:0: Video: wrapped_avframe, yuv420p(tv, bt709, progressive), 1920x1080 [SAR 1:1 DAR 16:9], q=2-31, 200 kb/s, 29.97 fps, 29.97 tbn
    Metadata:
      encoder         : Lavc60.5.100 wrapped_avframe
frame= 3207 fps= 12 q=-0.0 Lsize=N/A time=00:01:46.97 bitrate=N/A speed=0.395x    
video:1503kB audio:0kB subtitle:0kB other streams:0kB global headers:0kB muxing overhead: unknown
[Parsed_libvmaf_0 @ 000002c94d7e7a00] VMAF score: 95.811978
DEBUG ExitCode: 0
77.27MB
DEBUG Invoke-Process
File: ffmpeg
Arg: -y -nostats -hwaccel nvdec -hwaccel_output_format cuda -i 200103.avi -an -c:v h264_nvenc -preset:v p4 -tune ll -profile:v high -rc:v vbr -rc-lookahead 0 -spatial-aq 0 -temporal-aq 1 -aq-strength 8 -cq 23 -multipass 1 -g 60 -bf 2 -pix_fmt yuv420p -color_range tv -color_primaries bt709 -color_trc bt709 -colorspace bt709 -movflags +faststart output.mp4
ArgList:

ffmpeg version N-109952-g52a0852ae6-20230302 Copyright (c) 2000-2023 the FFmpeg developers
  built with gcc 12.2.0 (crosstool-NG 1.25.0.90_cf9beb1)
  configuration: --prefix=/ffbuild/prefix --pkg-config-flags=--static --pkg-config=pkg-config --cross-prefix=x86_64-w64-mingw32- --arch=x86_64 --target-os=mingw32 --enable-nonfree --enable-gpl --enable-version3 --disable-debug --disable-w32threads --enable-pthreads --enable-iconv --enable-libxml2 --enable-zlib --enable-libfreetype --enable-libfribidi --enable-gmp --enable-lzma --enable-fontconfig --enable-libvorbis --enable-opencl --disable-libpulse --enable-libvmaf --disable-libxcb --disable-xlib --enable-amf --enable-libaom --enable-libaribb24 --enable-avisynth --enable-chromaprint --enable-libdav1d --enable-libdavs2 --enable-libfdk-aac --enable-ffnvcodec --enable-cuda-llvm --enable-frei0r --enable-libgme --enable-libkvazaar --enable-libass --enable-libbluray --enable-libjxl --enable-libmp3lame --enable-libopus --enable-librist --enable-libssh --enable-libtheora --enable-libvpx --enable-libwebp --enable-lv2 --disable-libmfx --enable-libvpl --enable-openal --enable-libopencore-amrnb --enable-libopencore-amrwb --enable-libopenh264 --enable-libopenjpeg --enable-libopenmpt --enable-librav1e --enable-librubberband --enable-schannel --enable-sdl2 --enable-libsoxr --enable-libsrt --enable-libsvtav1 --enable-libtwolame --enable-libuavs3d --disable-libdrm --disable-vaapi --enable-libvidstab --enable-vulkan --enable-libshaderc --enable-libplacebo --enable-libx264 --enable-libx265 --enable-libxavs2 --enable-libxvid --enable-libzimg --enable-libzvbi --extra-cflags=-DLIBTWOLAME_STATIC --extra-cxxflags= --extra-ldflags=-pthread --extra-ldexeflags= --extra-libs=-lgomp --extra-version=20230302
  libavutil      58.  3.100 / 58.  3.100
  libavcodec     60.  5.100 / 60.  5.100
  libavformat    60.  4.100 / 60.  4.100
  libavdevice    60.  2.100 / 60.  2.100
  libavfilter     9.  4.100 /  9.  4.100
  libswscale      7.  2.100 /  7.  2.100
  libswresample   4. 11.100 /  4. 11.100
  libpostproc    57.  2.100 / 57.  2.100
Input #0, avi, from '200103.avi':
  Metadata:
    software        : Lavf58.51.101
  Duration: 00:01:47.01, start: 0.000000, bitrate: 745289 kb/s
  Stream #0:0: Video: rawvideo (I420 / 0x30323449), yuv420p, 1920x1080, 745517 kb/s, SAR 1:1 DAR 16:9, 29.97 fps, 29.97 tbr, 29.97 tbn
Stream mapping:
  Stream #0:0 -> #0:0 (rawvideo (native) -> h264 (h264_nvenc))
Press [q] to stop, [?] for help
Output #0, mp4, to 'output.mp4':
    software        : Lavf58.51.101
    encoder         : Lavf60.4.100
  Metadata:
  Stream #0:0: Video: h264 (High) (avc1 / 0x31637661), yuv420p(tv, bt709, progressive), 1920x1080 [SAR 1:1 DAR 16:9], q=2-31, 29.97 fps, 30k tbn
    Metadata:
      encoder         : Lavc60.5.100 h264_nvenc
    Side data:
      cpb: bitrate max/min/avg: 0/0/0 buffer size: 0 vbv_delay: N/A
[mp4 @ 0000017246a24600] Starting second pass: moving the moov atom to the beginning of the file
frame= 3207 fps=288 q=18.0 Lsize=   81181kB time=00:01:46.90 bitrate=6220.7kbits/s dup=2 drop=0 speed=9.59x    
video:81149kB audio:0kB subtitle:0kB other streams:0kB global headers:0kB muxing overhead: 0.039345%
DEBUG ExitCode: 0
DEBUG Invoke-Process
File: ffmpeg
Arg: -y -nostats -i output.mp4 -i 200103.avi -filter_complex libvmaf=model=version=vmaf_v0.6.1neg\\:name=vmaf_neg -an -f null -
ArgList:

ffmpeg version N-109952-g52a0852ae6-20230302 Copyright (c) 2000-2023 the FFmpeg developers
  built with gcc 12.2.0 (crosstool-NG 1.25.0.90_cf9beb1)
  configuration: --prefix=/ffbuild/prefix --pkg-config-flags=--static --pkg-config=pkg-config --cross-prefix=x86_64-w64-mingw32- --arch=x86_64 --target-os=mingw32 --enable-nonfree --enable-gpl --enable-version3 --disable-debug --disable-w32threads --enable-pthreads --enable-iconv --enable-libxml2 --enable-zlib --enable-libfreetype --enable-libfribidi --enable-gmp --enable-lzma --enable-fontconfig --enable-libvorbis --enable-opencl --disable-libpulse --enable-libvmaf --disable-libxcb --disable-xlib --enable-amf --enable-libaom --enable-libaribb24 --enable-avisynth --enable-chromaprint --enable-libdav1d --enable-libdavs2 --enable-libfdk-aac --enable-ffnvcodec --enable-cuda-llvm --enable-frei0r --enable-libgme --enable-libkvazaar --enable-libass --enable-libbluray --enable-libjxl --enable-libmp3lame --enable-libopus --enable-librist --enable-libssh --enable-libtheora --enable-libvpx --enable-libwebp --enable-lv2 --disable-libmfx --enable-libvpl --enable-openal --enable-libopencore-amrnb --enable-libopencore-amrwb --enable-libopenh264 --enable-libopenjpeg --enable-libopenmpt --enable-librav1e --enable-librubberband --enable-schannel --enable-sdl2 --enable-libsoxr --enable-libsrt --enable-libsvtav1 --enable-libtwolame --enable-libuavs3d --disable-libdrm --disable-vaapi --enable-libvidstab --enable-vulkan --enable-libshaderc --enable-libplacebo --enable-libx264 --enable-libx265 --enable-libxavs2 --enable-libxvid --enable-libzimg --enable-libzvbi --extra-cflags=-DLIBTWOLAME_STATIC --extra-cxxflags= --extra-ldflags=-pthread --extra-ldexeflags= --extra-libs=-lgomp --extra-version=20230302
  libavutil      58.  3.100 / 58.  3.100
  libavcodec     60.  5.100 / 60.  5.100
  libavformat    60.  4.100 / 60.  4.100
  libavdevice    60.  2.100 / 60.  2.100
  libavfilter     9.  4.100 /  9.  4.100
  libswscale      7.  2.100 /  7.  2.100
  libswresample   4. 11.100 /  4. 11.100
  libpostproc    57.  2.100 / 57.  2.100
Input #0, mov,mp4,m4a,3gp,3g2,mj2, from 'output.mp4':
  Metadata:
    major_brand     : isom
    minor_version   : 512
    compatible_brands: isomiso2avc1mp41
    encoder         : Lavf60.4.100
  Duration: 00:01:47.01, start: 0.000000, bitrate: 6214 kb/s
  Stream #0:0[0x1](und): Video: h264 (High) (avc1 / 0x31637661), yuv420p(tv, bt709, progressive), 1920x1080 [SAR 1:1 DAR 16:9], 6212 kb/s, 29.97 fps, 29.97 tbr, 30k tbn (default)
    Metadata:
      handler_name    : VideoHandler
      vendor_id       : [0][0][0][0]
      encoder         : Lavc60.5.100 h264_nvenc
Input #1, avi, from '200103.avi':
  Metadata:
    software        : Lavf58.51.101
  Duration: 00:01:47.01, start: 0.000000, bitrate: 745289 kb/s
  Stream #1:0: Video: rawvideo (I420 / 0x30323449), yuv420p, 1920x1080, 745517 kb/s, SAR 1:1 DAR 16:9, 29.97 fps, 29.97 tbr, 29.97 tbn
Stream mapping:
  Stream #1:0 (rawvideo) -> libvmaf
  libvmaf:default -> Stream #0:0 (wrapped_avframe)
Press [q] to stop, [?] for help
  Stream #0:0 (h264) -> libvmaf
Output #0, null, to 'pipe:':
  Metadata:
    major_brand     : isom
    minor_version   : 512
    compatible_brands: isomiso2avc1mp41
    encoder         : Lavf60.4.100
  Stream #0:0: Video: wrapped_avframe, yuv420p(tv, bt709, progressive), 1920x1080 [SAR 1:1 DAR 16:9], q=2-31, 200 kb/s, 29.97 fps, 29.97 tbn
      encoder         : Lavc60.5.100 wrapped_avframe
    Metadata:
frame= 3207 fps= 12 q=-0.0 Lsize=N/A time=00:01:46.97 bitrate=N/A speed=0.395x    
video:1503kB audio:0kB subtitle:0kB other streams:0kB global headers:0kB muxing overhead: unknown
[Parsed_libvmaf_0 @ 0000023a1ec87a00] VMAF score: 95.761947
DEBUG ExitCode: 0
79.28MB
DEBUG Invoke-Process
File: ffmpeg
Arg: -y -nostats -hwaccel nvdec -hwaccel_output_format cuda -i 200103.avi -an -c:v h264_nvenc -preset:v p7 -tune ll -profile:v high -rc:v vbr -rc-lookahead 0 -spatial-aq 0 -temporal-aq 1 -aq-strength 8 -cq 23 -multipass 1 -g 60 -bf 2 -pix_fmt yuv420p -color_range tv -color_primaries bt709 -color_trc bt709 -colorspace bt709 -movflags +faststart output.mp4
ArgList:

ffmpeg version N-109952-g52a0852ae6-20230302 Copyright (c) 2000-2023 the FFmpeg developers
  built with gcc 12.2.0 (crosstool-NG 1.25.0.90_cf9beb1)
  configuration: --prefix=/ffbuild/prefix --pkg-config-flags=--static --pkg-config=pkg-config --cross-prefix=x86_64-w64-mingw32- --arch=x86_64 --target-os=mingw32 --enable-nonfree --enable-gpl --enable-version3 --disable-debug --disable-w32threads --enable-pthreads --enable-iconv --enable-libxml2 --enable-zlib --enable-libfreetype --enable-libfribidi --enable-gmp --enable-lzma --enable-fontconfig --enable-libvorbis --enable-opencl --disable-libpulse --enable-libvmaf --disable-libxcb --disable-xlib --enable-amf --enable-libaom --enable-libaribb24 --enable-avisynth --enable-chromaprint --enable-libdav1d --enable-libdavs2 --enable-libfdk-aac --enable-ffnvcodec --enable-cuda-llvm --enable-frei0r --enable-libgme --enable-libkvazaar --enable-libass --enable-libbluray --enable-libjxl --enable-libmp3lame --enable-libopus --enable-librist --enable-libssh --enable-libtheora --enable-libvpx --enable-libwebp --enable-lv2 --disable-libmfx --enable-libvpl --enable-openal --enable-libopencore-amrnb --enable-libopencore-amrwb --enable-libopenh264 --enable-libopenjpeg --enable-libopenmpt --enable-librav1e --enable-librubberband --enable-schannel --enable-sdl2 --enable-libsoxr --enable-libsrt --enable-libsvtav1 --enable-libtwolame --enable-libuavs3d --disable-libdrm --disable-vaapi --enable-libvidstab --enable-vulkan --enable-libshaderc --enable-libplacebo --enable-libx264 --enable-libx265 --enable-libxavs2 --enable-libxvid --enable-libzimg --enable-libzvbi --extra-cflags=-DLIBTWOLAME_STATIC --extra-cxxflags= --extra-ldflags=-pthread --extra-ldexeflags= --extra-libs=-lgomp --extra-version=20230302
  libavutil      58.  3.100 / 58.  3.100
  libavcodec     60.  5.100 / 60.  5.100
  libavformat    60.  4.100 / 60.  4.100
  libavdevice    60.  2.100 / 60.  2.100
  libavfilter     9.  4.100 /  9.  4.100
  libswscale      7.  2.100 /  7.  2.100
  libswresample   4. 11.100 /  4. 11.100
  libpostproc    57.  2.100 / 57.  2.100
Input #0, avi, from '200103.avi':
  Metadata:
  Duration: 00:01:47.01, start: 0.000000, bitrate: 745289 kb/s
  Stream #0:0: Video: rawvideo (I420 / 0x30323449), yuv420p, 1920x1080, 745517 kb/s, SAR 1:1 DAR 16:9, 29.97 fps, 29.97 tbr, 29.97 tbn
    software        : Lavf58.51.101
Stream mapping:
  Stream #0:0 -> #0:0 (rawvideo (native) -> h264 (h264_nvenc))
Press [q] to stop, [?] for help
Output #0, mp4, to 'output.mp4':
  Metadata:
    software        : Lavf58.51.101
    encoder         : Lavf60.4.100
  Stream #0:0: Video: h264 (High) (avc1 / 0x31637661), yuv420p(tv, bt709, progressive), 1920x1080 [SAR 1:1 DAR 16:9], q=2-31, 29.97 fps, 30k tbn
    Metadata:
      encoder         : Lavc60.5.100 h264_nvenc
    Side data:
      cpb: bitrate max/min/avg: 0/0/0 buffer size: 0 vbv_delay: N/A
[mp4 @ 000001d4614b4600] Starting second pass: moving the moov atom to the beginning of the file
frame= 3207 fps=221 q=18.0 Lsize=   79631kB time=00:01:46.90 bitrate=6101.9kbits/s dup=2 drop=0 speed=7.37x    
video:79599kB audio:0kB subtitle:0kB other streams:0kB global headers:0kB muxing overhead: 0.040086%
DEBUG ExitCode: 0
DEBUG Invoke-Process
File: ffmpeg
Arg: -y -nostats -i output.mp4 -i 200103.avi -filter_complex libvmaf=model=version=vmaf_v0.6.1neg\\:name=vmaf_neg -an -f null -
ArgList:

ffmpeg version N-109952-g52a0852ae6-20230302 Copyright (c) 2000-2023 the FFmpeg developers
  built with gcc 12.2.0 (crosstool-NG 1.25.0.90_cf9beb1)
  configuration: --prefix=/ffbuild/prefix --pkg-config-flags=--static --pkg-config=pkg-config --cross-prefix=x86_64-w64-mingw32- --arch=x86_64 --target-os=mingw32 --enable-nonfree --enable-gpl --enable-version3 --disable-debug --disable-w32threads --enable-pthreads --enable-iconv --enable-libxml2 --enable-zlib --enable-libfreetype --enable-libfribidi --enable-gmp --enable-lzma --enable-fontconfig --enable-libvorbis --enable-opencl --disable-libpulse --enable-libvmaf --disable-libxcb --disable-xlib --enable-amf --enable-libaom --enable-libaribb24 --enable-avisynth --enable-chromaprint --enable-libdav1d --enable-libdavs2 --enable-libfdk-aac --enable-ffnvcodec --enable-cuda-llvm --enable-frei0r --enable-libgme --enable-libkvazaar --enable-libass --enable-libbluray --enable-libjxl --enable-libmp3lame --enable-libopus --enable-librist --enable-libssh --enable-libtheora --enable-libvpx --enable-libwebp --enable-lv2 --disable-libmfx --enable-libvpl --enable-openal --enable-libopencore-amrnb --enable-libopencore-amrwb --enable-libopenh264 --enable-libopenjpeg --enable-libopenmpt --enable-librav1e --enable-librubberband --enable-schannel --enable-sdl2 --enable-libsoxr --enable-libsrt --enable-libsvtav1 --enable-libtwolame --enable-libuavs3d --disable-libdrm --disable-vaapi --enable-libvidstab --enable-vulkan --enable-libshaderc --enable-libplacebo --enable-libx264 --enable-libx265 --enable-libxavs2 --enable-libxvid --enable-libzimg --enable-libzvbi --extra-cflags=-DLIBTWOLAME_STATIC --extra-cxxflags= --extra-ldflags=-pthread --extra-ldexeflags= --extra-libs=-lgomp --extra-version=20230302
  libavutil      58.  3.100 / 58.  3.100
  libavcodec     60.  5.100 / 60.  5.100
  libavformat    60.  4.100 / 60.  4.100
  libavdevice    60.  2.100 / 60.  2.100
  libavfilter     9.  4.100 /  9.  4.100
  libswscale      7.  2.100 /  7.  2.100
  libswresample   4. 11.100 /  4. 11.100
  libpostproc    57.  2.100 / 57.  2.100
Input #0, mov,mp4,m4a,3gp,3g2,mj2, from 'output.mp4':
  Metadata:
    major_brand     : isom
    minor_version   : 512
    compatible_brands: isomiso2avc1mp41
    encoder         : Lavf60.4.100
  Duration: 00:01:47.01, start: 0.000000, bitrate: 6096 kb/s
  Stream #0:0[0x1](und): Video: h264 (High) (avc1 / 0x31637661), yuv420p(tv, bt709, progressive), 1920x1080 [SAR 1:1 DAR 16:9], 6093 kb/s, 29.97 fps, 29.97 tbr, 30k tbn (default)
    Metadata:
      handler_name    : VideoHandler
      vendor_id       : [0][0][0][0]
      encoder         : Lavc60.5.100 h264_nvenc
Input #1, avi, from '200103.avi':
  Metadata:
    software        : Lavf58.51.101
  Duration: 00:01:47.01, start: 0.000000, bitrate: 745289 kb/s
  Stream #1:0: Video: rawvideo (I420 / 0x30323449), yuv420p, 1920x1080, 745517 kb/s, SAR 1:1 DAR 16:9, 29.97 fps, 29.97 tbr, 29.97 tbn
Stream mapping:
  Stream #0:0 (h264) -> libvmaf
  Stream #1:0 (rawvideo) -> libvmaf
  libvmaf:default -> Stream #0:0 (wrapped_avframe)
Press [q] to stop, [?] for help
Output #0, null, to 'pipe:':
  Metadata:
    major_brand     : isom
    minor_version   : 512
    compatible_brands: isomiso2avc1mp41
    encoder         : Lavf60.4.100
  Stream #0:0: Video: wrapped_avframe, yuv420p(tv, bt709, progressive), 1920x1080 [SAR 1:1 DAR 16:9], q=2-31, 200 kb/s, 29.97 fps, 29.97 tbn
    Metadata:
      encoder         : Lavc60.5.100 wrapped_avframe
frame= 3207 fps= 12 q=-0.0 Lsize=N/A time=00:01:46.97 bitrate=N/A speed=0.402x    
video:1503kB audio:0kB subtitle:0kB other streams:0kB global headers:0kB muxing overhead: unknown
[Parsed_libvmaf_0 @ 00000269b5e328c0] VMAF score: 95.753706
DEBUG ExitCode: 0
77.76MB
DEBUG Invoke-Process
File: ffmpeg
Arg: -y -nostats -hwaccel nvdec -hwaccel_output_format cuda -i 200103.avi -an -c:v h264_nvenc -preset:v p4 -tune ull -profile:v high -rc:v vbr -rc-lookahead 0 -spatial-aq 0 -temporal-aq 1 -aq-strength 8 -cq 23 -multipass 1 -g 60 -bf 2 -pix_fmt yuv420p -color_range tv -color_primaries bt709 -color_trc bt709 -colorspace bt709 -movflags +faststart output.mp4
ArgList:

ffmpeg version N-109952-g52a0852ae6-20230302 Copyright (c) 2000-2023 the FFmpeg developers
  built with gcc 12.2.0 (crosstool-NG 1.25.0.90_cf9beb1)
  libavutil      58.  3.100 / 58.  3.100
  libavcodec     60.  5.100 / 60.  5.100
  libavformat    60.  4.100 / 60.  4.100
  libavdevice    60.  2.100 / 60.  2.100
  libavfilter     9.  4.100 /  9.  4.100
  libswscale      7.  2.100 /  7.  2.100
  libswresample   4. 11.100 /  4. 11.100
  libpostproc    57.  2.100 / 57.  2.100
  configuration: --prefix=/ffbuild/prefix --pkg-config-flags=--static --pkg-config=pkg-config --cross-prefix=x86_64-w64-mingw32- --arch=x86_64 --target-os=mingw32 --enable-nonfree --enable-gpl --enable-version3 --disable-debug --disable-w32threads --enable-pthreads --enable-iconv --enable-libxml2 --enable-zlib --enable-libfreetype --enable-libfribidi --enable-gmp --enable-lzma --enable-fontconfig --enable-libvorbis --enable-opencl --disable-libpulse --enable-libvmaf --disable-libxcb --disable-xlib --enable-amf --enable-libaom --enable-libaribb24 --enable-avisynth --enable-chromaprint --enable-libdav1d --enable-libdavs2 --enable-libfdk-aac --enable-ffnvcodec --enable-cuda-llvm --enable-frei0r --enable-libgme --enable-libkvazaar --enable-libass --enable-libbluray --enable-libjxl --enable-libmp3lame --enable-libopus --enable-librist --enable-libssh --enable-libtheora --enable-libvpx --enable-libwebp --enable-lv2 --disable-libmfx --enable-libvpl --enable-openal --enable-libopencore-amrnb --enable-libopencore-amrwb --enable-libopenh264 --enable-libopenjpeg --enable-libopenmpt --enable-librav1e --enable-librubberband --enable-schannel --enable-sdl2 --enable-libsoxr --enable-libsrt --enable-libsvtav1 --enable-libtwolame --enable-libuavs3d --disable-libdrm --disable-vaapi --enable-libvidstab --enable-vulkan --enable-libshaderc --enable-libplacebo --enable-libx264 --enable-libx265 --enable-libxavs2 --enable-libxvid --enable-libzimg --enable-libzvbi --extra-cflags=-DLIBTWOLAME_STATIC --extra-cxxflags= --extra-ldflags=-pthread --extra-ldexeflags= --extra-libs=-lgomp --extra-version=20230302
Input #0, avi, from '200103.avi':
  Metadata:
    software        : Lavf58.51.101
  Duration: 00:01:47.01, start: 0.000000, bitrate: 745289 kb/s
  Stream #0:0: Video: rawvideo (I420 / 0x30323449), yuv420p, 1920x1080, 745517 kb/s, SAR 1:1 DAR 16:9, 29.97 fps, 29.97 tbr, 29.97 tbn
Stream mapping:
  Stream #0:0 -> #0:0 (rawvideo (native) -> h264 (h264_nvenc))
Press [q] to stop, [?] for help
Output #0, mp4, to 'output.mp4':
    software        : Lavf58.51.101
    encoder         : Lavf60.4.100
  Stream #0:0: Video: h264 (High) (avc1 / 0x31637661), yuv420p(tv, bt709, progressive), 1920x1080 [SAR 1:1 DAR 16:9], q=2-31, 29.97 fps, 30k tbn
    Metadata:
  Metadata:
      encoder         : Lavc60.5.100 h264_nvenc
    Side data:
      cpb: bitrate max/min/avg: 0/0/0 buffer size: 0 vbv_delay: N/A
[mp4 @ 00000256244c4600] Starting second pass: moving the moov atom to the beginning of the file
video:81149kB audio:0kB subtitle:0kB other streams:0kB global headers:0kB muxing overhead: 0.039345%
frame= 3207 fps=322 q=18.0 Lsize=   81181kB time=00:01:46.90 bitrate=6220.7kbits/s dup=2 drop=0 speed=10.7x
DEBUG ExitCode: 0
DEBUG Invoke-Process
File: ffmpeg
Arg: -y -nostats -i output.mp4 -i 200103.avi -filter_complex libvmaf=model=version=vmaf_v0.6.1neg\\:name=vmaf_neg -an -f null -
ArgList:

ffmpeg version N-109952-g52a0852ae6-20230302 Copyright (c) 2000-2023 the FFmpeg developers
  built with gcc 12.2.0 (crosstool-NG 1.25.0.90_cf9beb1)
  configuration: --prefix=/ffbuild/prefix --pkg-config-flags=--static --pkg-config=pkg-config --cross-prefix=x86_64-w64-mingw32- --arch=x86_64 --target-os=mingw32 --enable-nonfree --enable-gpl --enable-version3 --disable-debug --disable-w32threads --enable-pthreads --enable-iconv --enable-libxml2 --enable-zlib --enable-libfreetype --enable-libfribidi --enable-gmp --enable-lzma --enable-fontconfig --enable-libvorbis --enable-opencl --disable-libpulse --enable-libvmaf --disable-libxcb --disable-xlib --enable-amf --enable-libaom --enable-libaribb24 --enable-avisynth --enable-chromaprint --enable-libdav1d --enable-libdavs2 --enable-libfdk-aac --enable-ffnvcodec --enable-cuda-llvm --enable-frei0r --enable-libgme --enable-libkvazaar --enable-libass --enable-libbluray --enable-libjxl --enable-libmp3lame --enable-libopus --enable-librist --enable-libssh --enable-libtheora --enable-libvpx --enable-libwebp --enable-lv2 --disable-libmfx --enable-libvpl --enable-openal --enable-libopencore-amrnb --enable-libopencore-amrwb --enable-libopenh264 --enable-libopenjpeg --enable-libopenmpt --enable-librav1e --enable-librubberband --enable-schannel --enable-sdl2 --enable-libsoxr --enable-libsrt --enable-libsvtav1 --enable-libtwolame --enable-libuavs3d --disable-libdrm --disable-vaapi --enable-libvidstab --enable-vulkan --enable-libshaderc --enable-libplacebo --enable-libx264 --enable-libx265 --enable-libxavs2 --enable-libxvid --enable-libzimg --enable-libzvbi --extra-cflags=-DLIBTWOLAME_STATIC --extra-cxxflags= --extra-ldflags=-pthread --extra-ldexeflags= --extra-libs=-lgomp --extra-version=20230302
  libavutil      58.  3.100 / 58.  3.100
  libavcodec     60.  5.100 / 60.  5.100
  libavformat    60.  4.100 / 60.  4.100
  libavdevice    60.  2.100 / 60.  2.100
  libavfilter     9.  4.100 /  9.  4.100
  libswscale      7.  2.100 /  7.  2.100
  libswresample   4. 11.100 /  4. 11.100
  libpostproc    57.  2.100 / 57.  2.100
Input #0, mov,mp4,m4a,3gp,3g2,mj2, from 'output.mp4':
  Metadata:
    major_brand     : isom
    minor_version   : 512
    compatible_brands: isomiso2avc1mp41
    encoder         : Lavf60.4.100
  Duration: 00:01:47.01, start: 0.000000, bitrate: 6214 kb/s
  Stream #0:0[0x1](und): Video: h264 (High) (avc1 / 0x31637661), yuv420p(tv, bt709, progressive), 1920x1080 [SAR 1:1 DAR 16:9], 6212 kb/s, 29.97 fps, 29.97 tbr, 30k tbn (default)
    Metadata:
      handler_name    : VideoHandler
      encoder         : Lavc60.5.100 h264_nvenc
      vendor_id       : [0][0][0][0]
Input #1, avi, from '200103.avi':
  Metadata:
    software        : Lavf58.51.101
  Duration: 00:01:47.01, start: 0.000000, bitrate: 745289 kb/s
  Stream #1:0: Video: rawvideo (I420 / 0x30323449), yuv420p, 1920x1080, 745517 kb/s, SAR 1:1 DAR 16:9, 29.97 fps, 29.97 tbr, 29.97 tbn
Stream mapping:
  Stream #0:0 (h264) -> libvmaf
  Stream #1:0 (rawvideo) -> libvmaf
  libvmaf:default -> Stream #0:0 (wrapped_avframe)
Press [q] to stop, [?] for help
Output #0, null, to 'pipe:':
  Metadata:
    major_brand     : isom
    minor_version   : 512
    compatible_brands: isomiso2avc1mp41
    encoder         : Lavf60.4.100
  Stream #0:0: Video: wrapped_avframe, yuv420p(tv, bt709, progressive), 1920x1080 [SAR 1:1 DAR 16:9], q=2-31, 200 kb/s, 29.97 fps, 29.97 tbn
    Metadata:
      encoder         : Lavc60.5.100 wrapped_avframe
frame= 3207 fps= 12 q=-0.0 Lsize=N/A time=00:01:46.97 bitrate=N/A speed=0.402x    
video:1503kB audio:0kB subtitle:0kB other streams:0kB global headers:0kB muxing overhead: unknown
[Parsed_libvmaf_0 @ 000001c3b8227a00] VMAF score: 95.761947
DEBUG ExitCode: 0
79.28MB
DEBUG Invoke-Process
File: ffmpeg
Arg: -y -nostats -hwaccel nvdec -hwaccel_output_format cuda -i 200103.avi -an -c:v h264_nvenc -preset:v p7 -tune ull -profile:v high -rc:v vbr -rc-lookahead 0 -spatial-aq 0 -temporal-aq 1 -aq-strength 8 -cq 23 -multipass 1 -g 60 -bf 2 -pix_fmt yuv420p -color_range tv -color_primaries bt709 -color_trc bt709 -colorspace bt709 -movflags +faststart output.mp4
ArgList:

ffmpeg version N-109952-g52a0852ae6-20230302 Copyright (c) 2000-2023 the FFmpeg developers
  built with gcc 12.2.0 (crosstool-NG 1.25.0.90_cf9beb1)
  configuration: --prefix=/ffbuild/prefix --pkg-config-flags=--static --pkg-config=pkg-config --cross-prefix=x86_64-w64-mingw32- --arch=x86_64 --target-os=mingw32 --enable-nonfree --enable-gpl --enable-version3 --disable-debug --disable-w32threads --enable-pthreads --enable-iconv --enable-libxml2 --enable-zlib --enable-libfreetype --enable-libfribidi --enable-gmp --enable-lzma --enable-fontconfig --enable-libvorbis --enable-opencl --disable-libpulse --enable-libvmaf --disable-libxcb --disable-xlib --enable-amf --enable-libaom --enable-libaribb24 --enable-avisynth --enable-chromaprint --enable-libdav1d --enable-libdavs2 --enable-libfdk-aac --enable-ffnvcodec --enable-cuda-llvm --enable-frei0r --enable-libgme --enable-libkvazaar --enable-libass --enable-libbluray --enable-libjxl --enable-libmp3lame --enable-libopus --enable-librist --enable-libssh --enable-libtheora --enable-libvpx --enable-libwebp --enable-lv2 --disable-libmfx --enable-libvpl --enable-openal --enable-libopencore-amrnb --enable-libopencore-amrwb --enable-libopenh264 --enable-libopenjpeg --enable-libopenmpt --enable-librav1e --enable-librubberband --enable-schannel --enable-sdl2 --enable-libsoxr --enable-libsrt --enable-libsvtav1 --enable-libtwolame --enable-libuavs3d --disable-libdrm --disable-vaapi --enable-libvidstab --enable-vulkan --enable-libshaderc --enable-libplacebo --enable-libx264 --enable-libx265 --enable-libxavs2 --enable-libxvid --enable-libzimg --enable-libzvbi --extra-cflags=-DLIBTWOLAME_STATIC --extra-cxxflags= --extra-ldflags=-pthread --extra-ldexeflags= --extra-libs=-lgomp --extra-version=20230302
  libavutil      58.  3.100 / 58.  3.100
  libavcodec     60.  5.100 / 60.  5.100
  libavformat    60.  4.100 / 60.  4.100
  libavdevice    60.  2.100 / 60.  2.100
  libavfilter     9.  4.100 /  9.  4.100
  libswscale      7.  2.100 /  7.  2.100
  libswresample   4. 11.100 /  4. 11.100
  libpostproc    57.  2.100 / 57.  2.100
Input #0, avi, from '200103.avi':
  Metadata:
    software        : Lavf58.51.101
  Duration: 00:01:47.01, start: 0.000000, bitrate: 745289 kb/s
  Stream #0:0: Video: rawvideo (I420 / 0x30323449), yuv420p, 1920x1080, 745517 kb/s, SAR 1:1 DAR 16:9, 29.97 fps, 29.97 tbr, 29.97 tbn
Stream mapping:
  Stream #0:0 -> #0:0 (rawvideo (native) -> h264 (h264_nvenc))
Press [q] to stop, [?] for help
Output #0, mp4, to 'output.mp4':
  Metadata:
    software        : Lavf58.51.101
    encoder         : Lavf60.4.100
  Stream #0:0: Video: h264 (High) (avc1 / 0x31637661), yuv420p(tv, bt709, progressive), 1920x1080 [SAR 1:1 DAR 16:9], q=2-31, 29.97 fps, 30k tbn
    Metadata:
      encoder         : Lavc60.5.100 h264_nvenc
    Side data:
      cpb: bitrate max/min/avg: 0/0/0 buffer size: 0 vbv_delay: N/A
[mp4 @ 0000027f6d164600] Starting second pass: moving the moov atom to the beginning of the file
frame= 3207 fps=212 q=18.0 Lsize=   79631kB time=00:01:46.90 bitrate=6101.9kbits/s dup=2 drop=0 speed=7.07x    
video:79599kB audio:0kB subtitle:0kB other streams:0kB global headers:0kB muxing overhead: 0.040086%
DEBUG ExitCode: 0
DEBUG Invoke-Process
File: ffmpeg
Arg: -y -nostats -i output.mp4 -i 200103.avi -filter_complex libvmaf=model=version=vmaf_v0.6.1neg\\:name=vmaf_neg -an -f null -
ArgList:

ffmpeg version N-109952-g52a0852ae6-20230302 Copyright (c) 2000-2023 the FFmpeg developers
  built with gcc 12.2.0 (crosstool-NG 1.25.0.90_cf9beb1)
  configuration: --prefix=/ffbuild/prefix --pkg-config-flags=--static --pkg-config=pkg-config --cross-prefix=x86_64-w64-mingw32- --arch=x86_64 --target-os=mingw32 --enable-nonfree --enable-gpl --enable-version3 --disable-debug --disable-w32threads --enable-pthreads --enable-iconv --enable-libxml2 --enable-zlib --enable-libfreetype --enable-libfribidi --enable-gmp --enable-lzma --enable-fontconfig --enable-libvorbis --enable-opencl --disable-libpulse --enable-libvmaf --disable-libxcb --disable-xlib --enable-amf --enable-libaom --enable-libaribb24 --enable-avisynth --enable-chromaprint --enable-libdav1d --enable-libdavs2 --enable-libfdk-aac --enable-ffnvcodec --enable-cuda-llvm --enable-frei0r --enable-libgme --enable-libkvazaar --enable-libass --enable-libbluray --enable-libjxl --enable-libmp3lame --enable-libopus --enable-librist --enable-libssh --enable-libtheora --enable-libvpx --enable-libwebp --enable-lv2 --disable-libmfx --enable-libvpl --enable-openal --enable-libopencore-amrnb --enable-libopencore-amrwb --enable-libopenh264 --enable-libopenjpeg --enable-libopenmpt --enable-librav1e --enable-librubberband --enable-schannel --enable-sdl2 --enable-libsoxr --enable-libsrt --enable-libsvtav1 --enable-libtwolame --enable-libuavs3d --disable-libdrm --disable-vaapi --enable-libvidstab --enable-vulkan --enable-libshaderc --enable-libplacebo --enable-libx264 --enable-libx265 --enable-libxavs2 --enable-libxvid --enable-libzimg --enable-libzvbi --extra-cflags=-DLIBTWOLAME_STATIC --extra-cxxflags= --extra-ldflags=-pthread --extra-ldexeflags= --extra-libs=-lgomp --extra-version=20230302
  libavutil      58.  3.100 / 58.  3.100
  libavcodec     60.  5.100 / 60.  5.100
  libavformat    60.  4.100 / 60.  4.100
  libavdevice    60.  2.100 / 60.  2.100
  libavfilter     9.  4.100 /  9.  4.100
  libswscale      7.  2.100 /  7.  2.100
  libswresample   4. 11.100 /  4. 11.100
  libpostproc    57.  2.100 / 57.  2.100
Input #0, mov,mp4,m4a,3gp,3g2,mj2, from 'output.mp4':
  Metadata:
    major_brand     : isom
    minor_version   : 512
    compatible_brands: isomiso2avc1mp41
    encoder         : Lavf60.4.100
  Duration: 00:01:47.01, start: 0.000000, bitrate: 6096 kb/s
  Stream #0:0[0x1](und): Video: h264 (High) (avc1 / 0x31637661), yuv420p(tv, bt709, progressive), 1920x1080 [SAR 1:1 DAR 16:9], 6093 kb/s, 29.97 fps, 29.97 tbr, 30k tbn (default)
      handler_name    : VideoHandler
      vendor_id       : [0][0][0][0]
      encoder         : Lavc60.5.100 h264_nvenc
    Metadata:
Input #1, avi, from '200103.avi':
  Metadata:
    software        : Lavf58.51.101
  Duration: 00:01:47.01, start: 0.000000, bitrate: 745289 kb/s
  Stream #1:0: Video: rawvideo (I420 / 0x30323449), yuv420p, 1920x1080, 745517 kb/s, SAR 1:1 DAR 16:9, 29.97 fps, 29.97 tbr, 29.97 tbn
Stream mapping:
  Stream #0:0 (h264) -> libvmaf
  libvmaf:default -> Stream #0:0 (wrapped_avframe)
Press [q] to stop, [?] for help
  Stream #1:0 (rawvideo) -> libvmaf
Output #0, null, to 'pipe:':
    major_brand     : isom
    minor_version   : 512
    compatible_brands: isomiso2avc1mp41
    encoder         : Lavf60.4.100
  Metadata:
  Stream #0:0: Video: wrapped_avframe, yuv420p(tv, bt709, progressive), 1920x1080 [SAR 1:1 DAR 16:9], q=2-31, 200 kb/s, 29.97 fps, 29.97 tbn
    Metadata:
      encoder         : Lavc60.5.100 wrapped_avframe
frame= 3207 fps= 12 q=-0.0 Lsize=N/A time=00:01:46.97 bitrate=N/A speed=0.403x    
video:1503kB audio:0kB subtitle:0kB other streams:0kB global headers:0kB muxing overhead: unknown
[Parsed_libvmaf_0 @ 000001d9aa807a00] VMAF score: 95.753706
DEBUG ExitCode: 0
77.76MB
**********************
PowerShell transcript end
End time: 20230514175403
**********************
